{"title":"One Piece - 628 [HD 720p] [ENG SUBBED] [GWC].mkv","uid":9469887,"size":78816044,"categoryP":"video","categoryS":"tv_shows","magnet":"?xt=urn:btih:e77cb23c13ac944b7c777127b7713fbca9ee0302&amp;dn=One+Piece+-+628+%5BHD+720p%5D+%5BENG+SUBBED%5D+%5BGWC%5D.mkv&amp;tr=udp%3A%2F%2Ftracker.openbittorrent.com%3A80&amp;tr=udp%3A%2F%2Fopen.demonii.com%3A1337&amp;tr=udp%3A%2F%2Ftracker.coppersurfer.tk%3A6969&amp;tr=udp%3A%2F%2Fexodus.desync.com%3A6969","seeders":1,"leechers":0,"uploader":"canc232","files":1,"time":1389536958,"description":"One Piece - 628 [HD 720p] [ENG SUBBED] [GWC] \n\n\nTHUMBNAIL IMAGE : &lt;a href=&quot;\nhttp://img547.imageshack.us/img547/496/75gc.jpg&quot; rel=&quot;nofollow&quot; target=&quot;_NEW&quot;&gt;\nhttp://img547.imageshack.us/img547/496/75gc.jpg&lt;/a&gt;\n\n\nMEDIA INFO :\nGeneral\nFormat : Matroska \nFile size : 75.2 MiB \nDuration : 20mn 42s \nOverall bit rate : 507 Kbps \nWriting application : mkvmerge v6.6.0 ('The Edge Of The In Between')\n\nVideo \nFormat : AVC \nFormat profile : &lt;a class=&quot;__cf_email__&quot; href=&quot;/cdn-cgi/l/email-protection&quot; data-cfemail=&quot;420a2b252a020e766c73&quot;&gt;[email&amp;#160;protected]&lt;/a&gt;&lt;script cf-hash='f9e31' type=&quot;text/javascript&quot;&gt;\n/* &lt;![CDATA[ */!function(){try{var t=&quot;currentScript&quot;in document?document.currentScript:function(){for(var t=document.getElementsByTagName(&quot;script&quot;),e=t.length;e--;)if(t[e].getAttribute(&quot;cf-hash&quot;))return t[e]}();if(t&amp;&amp;t.previousSibling){var e,r,n,i,c=t.previousSibling,a=c.getAttribute(&quot;data-cfemail&quot;);if(a){for(e=&quot;&quot;,r=parseInt(a.substr(0,2),16),n=2;a.length-n;n+=2)i=parseInt(a.substr(n,2),16)^r,e+=String.fromCharCode(i);e=document.createTextNode(e),c.parentNode.replaceChild(e,c)}}}catch(u){}}();/* ]]&gt; */&lt;/script&gt; \nFormat settings, CABAC : Yes \nFormat settings, ReFrames : 11 frames\nDuration : 20mn 42s \nBit rate : 441 Kbps \nWidth : 1 280 pixels \nHeight : 720 pixels \nDisplay aspect ratio : 16:9 \nFrame rate : 29.970 fps \nStream size : 65.4 MiB \nTitle : One Piece - 628 [HD 720p] [ENG SUBBED] [GWC] \n\nAudio \nFormat : Vorbis \nDuration : 20mn 42s \nChannel(s) : 2 channels \nSampling rate : 44.1 KHz \nStream size : 8.30 MiB \nWriting library : aoTuV 20110424\n\nText \nFormat : UTF-8 \nCodec ID : S_TEXT/UTF8 \nTitle : [GWC] \nLanguage : English\n","torrent":{"xt":"urn:btih:e77cb23c13ac944b7c777127b7713fbca9ee0302","amp;dn":"One+Piece+-+628+%5BHD+720p%5D+%5BENG+SUBBED%5D+%5BGWC%5D.mkv","amp;tr":["udp%3A%2F%2Ftracker.openbittorrent.com%3A80","udp%3A%2F%2Fopen.demonii.com%3A1337","udp%3A%2F%2Ftracker.coppersurfer.tk%3A6969","udp%3A%2F%2Fexodus.desync.com%3A6969"],"infoHash":"e77cb23c13ac944b7c777127b7713fbca9ee0302","infoHashBuffer":{"type":"Buffer","data":[231,124,178,60,19,172,148,75,124,119,113,39,183,113,63,188,169,238,3,2]},"announce":[],"urlList":[]}}